<svg id="icon" viewBox="0 0 14 14" fill="none" xmlns="http://www.w3.org/2000/svg"><path d="M12.307 8.122 9.355 1.359 8.71.913l-.755-.24-1.02-.275-1.2.515-.798.446 3.018 6.763h4.35Z" fill="url('#paint0_linear_74_754')"/><path d="m1.712 5.86 2.952 6.779.644.447.754.24 1.021.276 1.199-.516.799-.447L6.062 5.86h-4.35Z" fill="url('#paint1_linear_74_754')"/><path d="M4.78 1.448.195 8.072l4.583.05 3.313-6.674c.233-.683.96-.285 1.295 0-1.43-2.622-3.668-1.093-4.608 0ZM9.22 12.552l4.584-6.624-4.583-.05-3.313 6.674c-.233.683-.96.285-1.295 0 1.43 2.622 3.668 1.093 4.608 0Z" fill="#fff"/><defs><linearGradient id="paint0_linear_74_754" x1="11.543" y1="8.122" x2="8.042" y2="1.572" gradientUnits="userSpaceOnUse"><stop/><stop offset=".495" stop-color="#fff"/><stop offset="1" stop-color="#fff"/></linearGradient><linearGradient id="paint1_linear_74_754" x1="2.475" y1="5.86" x2="5.989" y2="12.419" gradientUnits="userSpaceOnUse"><stop stop-color="#0C0C0C"/><stop offset=".495" stop-color="#fff"/><stop offset="1" stop-color="#fff"/></linearGradient></defs></svg>