<svg xmls="http://www.w3.org/2000/svg" xmlns:xlink="http://www.w3.org/1999/xlink">
<symbol xmlns="http://www.w3.org/2000/svg" width="16" height="2" viewBox="0 0 16 2" id="dash">
  <path d="M0 1H16" stroke="#141414"/>
  </symbol>


<symbol id="facebook" width="28" height="29" viewBox="0 0 28 29" fill="none" xmlns="http://www.w3.org/2000/svg">
<g opacity="0.8">
<path d="M17.0799 4.3742C17.2899 4.3742 17.4999 4.3742 17.9199 4.3742V7.5242C17.7099 7.5242 17.2899 7.5242 16.8699 7.5242C16.4499 7.5242 16.0299 7.5242 15.8199 7.7342C15.6099 7.9442 15.6099 8.1542 15.6099 8.6442C15.6099 9.0642 15.6099 9.3442 15.6099 9.7642H17.9199V12.4242H15.6099V23.9742H12.0399V12.3542H10.1499V9.6942H12.0399V8.7842C12.0399 7.2442 12.2499 6.1242 12.6699 5.6342C13.2999 4.7242 14.5599 4.3042 16.4499 4.3042C16.6599 4.3742 16.8699 4.3742 17.0799 4.3742Z" fill="white"/>
</g>
</symbol>


<symbol id="instagram" svg width="40" height="41" viewBox="0 0 40 41" fill="none" xmlns="http://www.w3.org/2000/svg">
<path d="M35.8969 13.7589C35.8774 12.416 35.6286 11.0837 35.1524 9.82766C34.319 7.68285 32.6219 5.98688 30.4736 5.15663C29.2315 4.69006 27.9183 4.43992 26.5891 4.41154C24.8796 4.33525 24.3376 4.31396 19.9982 4.31396C15.6588 4.31396 15.1026 4.31396 13.4056 4.41154C12.0782 4.43992 10.765 4.69006 9.52288 5.15663C7.3745 5.98688 5.6757 7.68285 4.84407 9.82766C4.37672 11.0677 4.12439 12.3787 4.09951 13.7039C4.0231 15.4123 4 15.9534 4 20.2856C4 24.6178 4 25.1713 4.09951 26.8672C4.12617 28.1942 4.37672 29.5035 4.84407 30.7471C5.67748 32.8901 7.3745 34.5861 9.52466 35.4163C10.7614 35.8988 12.0746 36.172 13.4074 36.2146C15.1186 36.2909 15.6606 36.314 20 36.314C24.3394 36.314 24.8956 36.314 26.5926 36.2146C27.92 36.188 29.2332 35.9379 30.4771 35.4713C32.6255 34.6393 34.3225 32.9433 35.1559 30.8003C35.6233 29.5585 35.8738 28.2492 35.9005 26.9205C35.9769 25.2138 36 24.6728 36 20.3388C35.9964 16.0066 35.9964 15.4567 35.8969 13.7589ZM19.9876 28.4781C15.4491 28.4781 11.7725 24.8076 11.7725 20.2767C11.7725 15.7458 15.4491 12.0754 19.9876 12.0754C24.5224 12.0754 28.2026 15.7458 28.2026 20.2767C28.2026 24.8076 24.5224 28.4781 19.9876 28.4781ZM28.5295 13.6844C27.4687 13.6844 26.6139 12.8293 26.6139 11.772C26.6139 10.7147 27.4687 9.85959 28.5295 9.85959C29.5869 9.85959 30.4434 10.7147 30.4434 11.772C30.4434 12.8293 29.5869 13.6844 28.5295 13.6844Z" fill="white"/>
<path d="M19.9901 25.2839C22.7543 25.2839 24.9951 23.0431 24.9951 20.2789C24.9951 17.5147 22.7543 15.2739 19.9901 15.2739C17.2259 15.2739 14.9851 17.5147 14.9851 20.2789C14.9851 23.0431 17.2259 25.2839 19.9901 25.2839Z" fill="white"/>
</symbol>

<symbol id="youtube" width="28" height="29" viewBox="0 0 28 29" fill="none" xmlns="http://www.w3.org/2000/svg">
<g opacity="0.8">
<path fill-rule="evenodd" clip-rule="evenodd" d="M21.2101 5.56383C20.0201 5.49383 17.5701 5.42383 13.8601 5.42383H13.3701C9.8001 5.42383 7.42013 5.49383 6.23013 5.63383C4.62013 5.77383 3.5001 6.19383 2.8701 6.75383C2.3101 7.24383 1.89012 8.15383 1.75012 9.34383C1.68012 10.1138 1.61011 11.7238 1.61011 14.1738V14.5238C1.61011 16.8338 1.6801 18.4438 1.8201 19.2138C2.0301 20.3338 2.38013 21.1738 3.08013 21.6638C3.78013 22.2238 4.97012 22.5738 6.65012 22.7138C7.84012 22.7838 10.2901 22.8538 14.0001 22.8538H14.4901C18.0601 22.8538 20.4401 22.7838 21.6301 22.6438C23.2401 22.5038 24.3601 22.0838 24.9901 21.5238C25.5501 21.0338 25.9701 20.1238 26.1101 18.9338C26.1801 18.1638 26.2501 16.5538 26.2501 14.1038V13.7538C26.2501 11.4438 26.1801 9.83383 26.0401 9.06383C25.8301 7.94383 25.4801 7.10383 24.7801 6.61383C24.0801 6.05383 22.8901 5.70383 21.2101 5.56383ZM18.4801 14.1738L10.7801 18.7938V9.55383L18.4801 14.1738Z" fill="white"/>
</g>
</symbol>



  <symbol xmlns="http://www.w3.org/2000/svg" width="64" height="64" viewBox="0 0 60 64" fill="none" id="antena">
  <path d="M59.5463 44.1952L42.6599 27.1851L44.534 17.9541C45.0176 18.1429 45.5318 18.2416 46.0508 18.2453H46.0636C48.4482 18.2735 50.404 16.3633 50.4323 13.9788C50.4606 11.5943 48.5503 9.6384 46.1658 9.61013C43.7812 9.582 41.8254 11.4921 41.7971 13.8767C41.7911 14.3869 41.8755 14.8941 42.0466 15.3749L32.1266 16.5856L15.9452 0.32C15.7467 0.117467 15.4757 0.00226667 15.1921 0C14.9121 0.00146667 14.644 0.112933 14.4455 0.3104L11.4204 3.3184C11.004 3.73493 11.004 4.41013 11.4204 4.82667L13.0481 6.47787C6.74201 18.0737 8.79028 32.4335 18.0871 41.8037C18.1724 41.8853 18.2713 41.9513 18.3793 41.9989C18.3121 42.3599 18.2771 42.7261 18.2748 43.0933V55.4667H5.47481C2.53081 55.4701 0.144946 57.856 0.141479 60.8V62.9333C0.141479 63.5224 0.61908 64 1.20815 64H50.2748C50.8639 64 51.3415 63.5224 51.3415 62.9333V60.8C51.338 57.856 48.9522 55.4701 46.0082 55.4667H33.2082V49.9829C35.2134 50.4035 37.2564 50.6179 39.3052 50.6229C44.2215 50.6176 49.0595 49.392 53.3852 47.056L55.0215 48.7019C55.22 48.9044 55.491 49.0196 55.7746 49.0219C56.0546 49.0204 56.3227 48.9089 56.5212 48.7115L59.5463 45.7035C59.9627 45.2869 59.9627 44.6117 59.5463 44.1952ZM44.5596 12.4661C45.395 11.6352 46.7458 11.6389 47.5766 12.4743C48.4075 13.3096 48.4038 14.6604 47.5684 15.4912C47.1686 15.8889 46.6275 16.1121 46.0635 16.112H46.0571C44.879 16.1059 43.9287 15.1459 43.9348 13.9676C43.9378 13.4036 44.1639 12.8639 44.5638 12.4661H44.5596ZM42.0487 19.4752L40.8519 25.3664L38.5009 23.0016L42.0487 19.4752ZM40.837 17.6715L36.997 21.4891L34.0263 18.5024L40.837 17.6715ZM46.0082 57.6C47.7755 57.6 49.2082 59.0327 49.2082 60.8V61.8667H2.27481V60.8C2.27481 59.0327 3.70748 57.6 5.47481 57.6H46.0082ZM31.0748 53.3333V55.4667H20.4081V53.3333H31.0748ZM20.4081 51.2V43.0933C20.4081 40.5056 22.8007 38.4 25.7415 38.4C28.6823 38.4 31.0748 40.5056 31.0748 43.0933V51.2H20.4081ZM33.2082 47.808V43.0933C33.2082 39.3291 29.8588 36.2667 25.7415 36.2667C23.0793 36.2259 20.59 37.5809 19.1793 39.8389C11.0639 31.2913 9.23641 18.5485 14.6221 8.06467L51.8258 45.4816C46.081 48.404 39.4955 49.2268 33.2082 47.808ZM55.7863 46.4405L54.2834 44.9291L15.1815 5.59147L13.6721 4.07893L15.1815 2.57493L31.0513 18.5344C31.0588 18.5344 31.0631 18.5483 31.0706 18.5536L57.2999 44.9365L55.7863 46.4405Z" fill="#2E2F42"/>
</symbol>
</svg>